<svg width="50" height="50" viewBox="0 0 50 50" fill="none" xmlns="http://www.w3.org/2000/svg">
<circle cx="25" cy="25" r="25" transform="matrix(-1 0 0 1 50 0)" fill="#E21B33" fill-opacity="0.1"/>
<path fill-rule="evenodd" clip-rule="evenodd" d="M31.1763 19.5064C31.1763 22.9329 28.4289 25.6805 25 25.6805C21.5722 25.6805 18.8236 22.9329 18.8236 19.5064C18.8236 16.0799 21.5722 13.3335 25 13.3335C28.4289 13.3335 31.1763 16.0799 31.1763 19.5064ZM25 36.6668C19.9394 36.6668 15.6666 35.8443 15.6666 32.671C15.6666 29.4964 19.9662 28.7031 25 28.7031C30.0617 28.7031 34.3333 29.5256 34.3333 32.699C34.3333 35.8735 30.0337 36.6668 25 36.6668Z" fill="#E21B33"/>
</svg>
