<svg width="20" height="20" viewBox="0 0 20 20" fill="none" xmlns="http://www.w3.org/2000/svg">
<path fill-rule="evenodd" clip-rule="evenodd" d="M7.99268 12.6738C11.0668 12.6738 13.6943 13.1397 13.6943 15.0005C13.6943 16.8613 11.0843 17.3405 7.99268 17.3405C4.91768 17.3405 2.29102 16.8788 2.29102 15.0172C2.29102 13.1555 4.90018 12.6738 7.99268 12.6738Z" stroke="black" stroke-linecap="round" stroke-linejoin="round"/>
<path fill-rule="evenodd" clip-rule="evenodd" d="M7.99289 10.0173C5.97456 10.0173 4.33789 8.38149 4.33789 6.36315C4.33789 4.34482 5.97456 2.70898 7.99289 2.70898C10.0104 2.70898 11.6471 4.34482 11.6471 6.36315C11.6546 8.37399 10.0296 10.0098 8.01872 10.0173H7.99289Z" stroke="black" stroke-linecap="round" stroke-linejoin="round"/>
<path d="M13.7363 9.06839C15.0705 8.88089 16.098 7.73589 16.1005 6.35005C16.1005 4.98422 15.1047 3.85089 13.7988 3.63672" stroke="black" stroke-linecap="round" stroke-linejoin="round"/>
<path d="M15.4961 12.2773C16.7886 12.4698 17.6911 12.9232 17.6911 13.8565C17.6911 14.499 17.2661 14.9157 16.5794 15.1765" stroke="black" stroke-linecap="round" stroke-linejoin="round"/>
</svg>
