<svg width="20" height="20" viewBox="0 0 20 20" fill="none" xmlns="http://www.w3.org/2000/svg">
<path d="M16.875 3.125H3.125C2.62772 3.125 2.15081 3.32254 1.79917 3.67417C1.44754 4.02581 1.25 4.50272 1.25 5V15C1.25 15.4973 1.44754 15.9742 1.79917 16.3258C2.15081 16.6775 2.62772 16.875 3.125 16.875H16.875C17.3723 16.875 17.8492 16.6775 18.2008 16.3258C18.5525 15.9742 18.75 15.4973 18.75 15V5C18.75 4.50272 18.5525 4.02581 18.2008 3.67417C17.8492 3.32254 17.3723 3.125 16.875 3.125ZM8.125 7.5C8.125 7.37639 8.16166 7.25555 8.23033 7.15277C8.29901 7.04999 8.39662 6.96988 8.51082 6.92258C8.62503 6.87527 8.75069 6.86289 8.87193 6.88701C8.99317 6.91112 9.10453 6.97065 9.19194 7.05806C9.27935 7.14547 9.33887 7.25683 9.36299 7.37807C9.38711 7.49931 9.37473 7.62497 9.32743 7.73918C9.28012 7.85338 9.20001 7.95099 9.09723 8.01967C8.99445 8.08834 8.87361 8.125 8.75 8.125H8.125V7.5ZM6.875 15.625H3.125C2.95924 15.625 2.80027 15.5592 2.68306 15.4419C2.56585 15.3247 2.5 15.1658 2.5 15V9.375H5.99125L5.18313 10.1831C5.12343 10.2408 5.07582 10.3097 5.04306 10.386C5.01031 10.4622 4.99306 10.5443 4.99234 10.6272C4.99162 10.7102 5.00744 10.7925 5.03886 10.8693C5.07029 10.9462 5.1167 11.0159 5.17538 11.0746C5.23406 11.1333 5.30384 11.1797 5.38065 11.2111C5.45746 11.2426 5.53976 11.2584 5.62275 11.2577C5.70574 11.2569 5.78775 11.2397 5.864 11.2069C5.94026 11.1742 6.00922 11.1266 6.06687 11.0669L6.875 10.2587V15.625ZM6.875 8.125H6.25C6.12639 8.125 6.00555 8.08834 5.90277 8.01967C5.79999 7.95099 5.71988 7.85338 5.67257 7.73918C5.62527 7.62497 5.61289 7.49931 5.63701 7.37807C5.66112 7.25683 5.72065 7.14547 5.80806 7.05806C5.89547 6.97065 6.00683 6.91112 6.12807 6.88701C6.24931 6.86289 6.37497 6.87527 6.48918 6.92258C6.60338 6.96988 6.70099 7.04999 6.76967 7.15277C6.83834 7.25555 6.875 7.37639 6.875 7.5V8.125ZM6.875 5.74C6.67484 5.66598 6.4634 5.62707 6.25 5.625C5.75272 5.625 5.27581 5.82254 4.92417 6.17417C4.57254 6.52581 4.375 7.00272 4.375 7.5C4.37707 7.7134 4.41598 7.92484 4.49 8.125H2.5V5C2.5 4.83424 2.56585 4.67527 2.68306 4.55806C2.80027 4.44085 2.95924 4.375 3.125 4.375H6.875V5.74ZM17.5 15C17.5 15.1658 17.4342 15.3247 17.3169 15.4419C17.1997 15.5592 17.0408 15.625 16.875 15.625H8.125V10.2587L8.93313 11.0669C9.051 11.1807 9.20888 11.2437 9.37275 11.2423C9.53662 11.2409 9.69338 11.1751 9.80926 11.0593C9.92514 10.9434 9.99087 10.7866 9.9923 10.6228C9.99372 10.4589 9.93072 10.301 9.81687 10.1831L9.00875 9.375H17.5V15ZM17.5 8.125H10.51C10.584 7.92484 10.6229 7.7134 10.625 7.5C10.625 7.00272 10.4275 6.52581 10.0758 6.17417C9.72419 5.82254 9.24728 5.625 8.75 5.625C8.5366 5.62707 8.32516 5.66598 8.125 5.74V4.375H16.875C17.0408 4.375 17.1997 4.44085 17.3169 4.55806C17.4342 4.67527 17.5 4.83424 17.5 5V8.125ZM11.25 13.75C11.25 13.5842 11.3158 13.4253 11.4331 13.3081C11.5503 13.1908 11.7092 13.125 11.875 13.125H14.375C14.5408 13.125 14.6997 13.1908 14.8169 13.3081C14.9342 13.4253 15 13.5842 15 13.75C15 13.9158 14.9342 14.0747 14.8169 14.1919C14.6997 14.3092 14.5408 14.375 14.375 14.375H11.875C11.7092 14.375 11.5503 14.3092 11.4331 14.1919C11.3158 14.0747 11.25 13.9158 11.25 13.75ZM11.25 11.25C11.25 11.0842 11.3158 10.9253 11.4331 10.8081C11.5503 10.6908 11.7092 10.625 11.875 10.625H15.625C15.7908 10.625 15.9497 10.6908 16.0669 10.8081C16.1842 10.9253 16.25 11.0842 16.25 11.25C16.25 11.4158 16.1842 11.5747 16.0669 11.6919C15.9497 11.8092 15.7908 11.875 15.625 11.875H11.875C11.7092 11.875 11.5503 11.8092 11.4331 11.6919C11.3158 11.5747 11.25 11.4158 11.25 11.25Z" fill="black" stroke="#E9EAEF" stroke-width="0.3"/>
</svg>
