<svg width="20" height="20" viewBox="0 0 20 20" fill="none" xmlns="http://www.w3.org/2000/svg">
<path d="M4.37509 10.0028C4.06606 10.0028 3.76396 10.0945 3.50701 10.2662C3.25006 10.4379 3.04979 10.6819 2.93153 10.9674C2.81327 11.2529 2.78232 11.5671 2.84261 11.8702C2.9029 12.1733 3.05172 12.4517 3.27024 12.6702C3.48876 12.8887 3.76717 13.0375 4.07026 13.0978C4.37336 13.1581 4.68752 13.1272 4.97303 13.0089C5.25854 12.8906 5.50257 12.6904 5.67426 12.4334C5.84595 12.1765 5.93759 11.8744 5.93759 11.5653C5.93709 11.1511 5.77232 10.754 5.4794 10.461C5.18648 10.1681 4.78934 10.0033 4.37509 10.0028ZM4.37509 12.5028C4.18967 12.5028 4.00841 12.4479 3.85424 12.3448C3.70007 12.2418 3.57991 12.0954 3.50895 11.9241C3.438 11.7528 3.41943 11.5643 3.4556 11.3825C3.49178 11.2006 3.58107 11.0335 3.71218 10.9024C3.84329 10.7713 4.01034 10.682 4.19219 10.6459C4.37405 10.6097 4.56255 10.6283 4.73386 10.6992C4.90516 10.7702 5.05158 10.8903 5.15459 11.0445C5.25761 11.1987 5.31259 11.3799 5.31259 11.5653C5.31234 11.8139 5.21349 12.0522 5.03773 12.228C4.86197 12.4037 4.62365 12.5026 4.37509 12.5028ZM7.18759 13.4403C6.87856 13.4403 6.57646 13.532 6.31951 13.7037C6.06256 13.8754 5.86229 14.1194 5.74403 14.4049C5.62577 14.6904 5.59482 15.0046 5.65511 15.3077C5.7154 15.6108 5.86422 15.8892 6.08274 16.1077C6.30126 16.3262 6.57967 16.475 6.88276 16.5353C7.18586 16.5956 7.50002 16.5647 7.78553 16.4464C8.07104 16.3281 8.31507 16.1279 8.48676 15.8709C8.65845 15.614 8.75009 15.3119 8.75009 15.0028C8.74959 14.5886 8.58482 14.1915 8.2919 13.8985C7.99898 13.6056 7.60184 13.4408 7.18759 13.4403ZM7.18759 15.9403C7.00217 15.9403 6.82091 15.8854 6.66674 15.7823C6.51257 15.6793 6.39241 15.5329 6.32145 15.3616C6.2505 15.1903 6.23193 15.0018 6.2681 14.82C6.30428 14.6381 6.39357 14.471 6.52468 14.3399C6.65579 14.2088 6.82284 14.1195 7.00469 14.0834C7.18655 14.0472 7.37505 14.0658 7.54636 14.1367C7.71766 14.2077 7.86408 14.3278 7.96709 14.482C8.07011 14.6362 8.12509 14.8174 8.12509 15.0028C8.12484 15.2514 8.02599 15.4897 7.85023 15.6655C7.67447 15.8412 7.43615 15.9401 7.18759 15.9403ZM5.31259 8.75285C5.62162 8.75285 5.92372 8.66121 6.18067 8.48952C6.43762 8.31783 6.63789 8.0738 6.75615 7.78829C6.87441 7.50278 6.90536 7.18861 6.84507 6.88552C6.78478 6.58242 6.63596 6.30401 6.41745 6.08549C6.19893 5.86697 5.92051 5.71816 5.61742 5.65787C5.31432 5.59758 5.00016 5.62852 4.71465 5.74679C4.42914 5.86505 4.18511 6.06532 4.01342 6.32227C3.84173 6.57922 3.75009 6.88131 3.75009 7.19035C3.75059 7.6046 3.91537 8.00174 4.20828 8.29465C4.5012 8.58757 4.89834 8.75235 5.31259 8.75285ZM5.31259 6.25285C5.49801 6.25285 5.67927 6.30783 5.83344 6.41084C5.98761 6.51386 6.10777 6.66028 6.17873 6.83158C6.24968 7.00289 6.26825 7.19139 6.23208 7.37325C6.1959 7.5551 6.10662 7.72215 5.9755 7.85326C5.84439 7.98437 5.67735 8.07366 5.49549 8.10983C5.31363 8.14601 5.12513 8.12744 4.95382 8.05649C4.78252 7.98553 4.6361 7.86537 4.53309 7.71119C4.43007 7.55702 4.37509 7.37577 4.37509 7.19035C4.37534 6.94178 4.47419 6.70347 4.64995 6.52771C4.82571 6.35195 5.06403 6.2531 5.31259 6.25285ZM9.37509 6.56535C9.68412 6.56535 9.98622 6.47371 10.2432 6.30202C10.5001 6.13033 10.7004 5.8863 10.8187 5.60079C10.9369 5.31528 10.9679 5.00111 10.9076 4.69802C10.8473 4.39492 10.6985 4.11651 10.4799 3.89799C10.2614 3.67947 9.98302 3.53066 9.67992 3.47037C9.37682 3.41008 9.06266 3.44102 8.77715 3.55929C8.49164 3.67755 8.24761 3.87782 8.07592 4.13477C7.90423 4.39172 7.81259 4.69381 7.81259 5.00285C7.81309 5.4171 7.97787 5.81424 8.27078 6.10715C8.5637 6.40007 8.96084 6.56485 9.37509 6.56535ZM9.37509 4.06535C9.56051 4.06535 9.74177 4.12033 9.89594 4.22335C10.0501 4.32636 10.1703 4.47278 10.2412 4.64408C10.3122 4.81539 10.3308 5.00389 10.2946 5.18575C10.2584 5.3676 10.1691 5.53465 10.038 5.66576C9.90689 5.79687 9.73985 5.88616 9.55799 5.92233C9.37613 5.95851 9.18763 5.93994 9.01632 5.86899C8.84502 5.79803 8.6986 5.67787 8.59559 5.52369C8.49257 5.36952 8.43759 5.18827 8.43759 5.00285C8.43784 4.75428 8.53669 4.51597 8.71245 4.34021C8.88821 4.16445 9.12653 4.0656 9.37509 4.06535ZM19.176 1.45191C18.3745 0.650348 15.9845 2.50285 14.5182 3.88097C13.4823 3.0026 12.2496 2.38731 10.925 2.08738C9.60032 1.78746 8.22283 1.81177 6.90958 2.15825C5.59633 2.50473 4.38614 3.16314 3.38186 4.07752C2.37758 4.9919 1.6089 6.13522 1.14114 7.41032C0.673384 8.68541 0.520377 10.0546 0.695126 11.4015C0.869875 12.7484 1.36721 14.0332 2.14487 15.1467C2.92253 16.2602 3.95753 17.1695 5.1619 17.7973C6.36627 18.4252 7.7044 18.753 9.06259 18.7528C9.95384 18.7528 10.6532 18.4469 10.9832 17.9135C11.1904 17.5785 11.3451 16.9938 10.9048 16.1132C10.7484 15.8282 10.6651 15.5089 10.6623 15.1838C10.6594 14.8587 10.7372 14.538 10.8885 14.2503C11.2157 13.7203 11.8813 13.4403 12.8126 13.4403C15.1304 13.4403 17.5001 13.0691 17.5001 10.3153C17.4983 8.9352 17.1581 7.57655 16.5092 6.35847C17.8976 4.93035 20.0248 2.30129 19.176 1.45191ZM18.7345 1.89347C18.9301 2.10441 18.1967 3.79035 15.8848 6.10191C15.3229 6.6658 14.7272 7.195 14.101 7.6866C13.8039 7.21993 13.408 6.82407 12.9413 6.52691C13.4329 5.90077 13.9621 5.30508 14.526 4.74316C16.8376 2.4316 18.5238 1.69879 18.7345 1.89347ZM11.9142 8.09285C12.1038 7.72157 12.3221 7.3656 12.567 7.02816C12.9871 7.2871 13.3408 7.64081 13.5998 8.06097C13.2623 8.30584 12.9064 8.5241 12.5351 8.71379C12.3799 8.46082 12.1671 8.24808 11.9142 8.09285ZM12.1876 9.69035C12.1876 10.4294 11.4176 11.2528 10.3126 11.2528C9.63801 11.2821 8.97713 11.0564 8.46134 10.6207C9.12259 10.4775 9.4204 9.91847 9.67072 9.44847C10.0038 8.82347 10.2429 8.44035 10.9376 8.44035C11.269 8.44068 11.5868 8.57248 11.8211 8.80683C12.0555 9.04118 12.1873 9.35893 12.1876 9.69035ZM12.8126 12.8153C11.3479 12.8153 10.6688 13.4169 10.357 13.9216C10.1472 14.2992 10.0362 14.7236 10.0342 15.1556C10.0321 15.5875 10.1392 16.013 10.3454 16.3925C10.5957 16.8925 10.6313 17.2941 10.4517 17.5853C10.241 17.9247 9.72197 18.1278 9.06259 18.1278C7.80656 18.13 6.56853 17.8292 5.45346 17.2511C4.33839 16.673 3.37914 15.8345 2.65704 14.8068C1.93493 13.7791 1.47126 12.5925 1.30533 11.3474C1.13941 10.1024 1.27611 8.83574 1.70385 7.65479C2.1316 6.47383 2.83778 5.41342 3.76252 4.56345C4.68727 3.71347 5.80332 3.09899 7.01607 2.77209C8.22881 2.4452 9.5025 2.41552 10.7292 2.68558C11.9558 2.95565 13.0993 3.51749 14.0626 4.32347C12.797 5.59222 11.8032 6.88504 11.3338 7.85847C11.2037 7.83005 11.0708 7.81559 10.9376 7.81535C9.83228 7.81535 9.43696 8.55785 9.11946 9.15441C8.7779 9.79566 8.56697 10.1238 7.86384 10.0072C7.807 9.99776 7.74865 10.0042 7.69524 10.0258C7.64183 10.0474 7.59544 10.0834 7.56119 10.1298C7.52694 10.1761 7.50618 10.231 7.50118 10.2884C7.49619 10.3458 7.50717 10.4035 7.5329 10.455C7.56197 10.5132 8.2679 11.8778 10.3126 11.8778C11.8079 11.8778 12.8126 10.7466 12.8126 9.69035C12.8123 9.55711 12.7979 9.42427 12.7695 9.2941C13.9765 8.63332 15.08 7.79879 16.0445 6.81722C16.5896 7.90282 16.874 9.10058 16.8751 10.3153C16.8751 12.1144 15.736 12.8153 12.8126 12.8153Z" fill="black"/>
</svg>
