<svg width="20" height="20" viewBox="0 0 20 20" fill="none" xmlns="http://www.w3.org/2000/svg">
<path d="M3.99499 5.87946C3.99499 4.83863 4.83832 3.99529 5.87915 3.99446H6.73665C7.23415 3.99446 7.71082 3.79696 8.06415 3.44696L8.66332 2.84696C9.39749 2.10863 10.5908 2.10529 11.3292 2.83946L11.33 2.84029L11.3375 2.84696L11.9375 3.44696C12.2908 3.79779 12.7675 3.99446 13.265 3.99446H14.1217C15.1625 3.99446 16.0067 4.83779 16.0067 5.87946V6.73529C16.0067 7.23279 16.2033 7.71029 16.5542 8.06363L17.1542 8.66363C17.8925 9.39779 17.8967 10.5911 17.1625 11.3295L17.1617 11.3303L17.1542 11.3378L16.5542 11.9378C16.2033 12.2903 16.0067 12.767 16.0067 13.2645V14.122C16.0067 15.1628 15.1633 16.0061 14.1225 16.0061H14.1217H13.2633C12.7658 16.0061 12.2883 16.2036 11.9358 16.5545L11.3358 17.1536C10.6025 17.892 9.40999 17.8961 8.67165 17.1636C8.67082 17.1628 8.66999 17.162 8.66915 17.1611L8.66165 17.1536L8.06249 16.5545C7.70999 16.2036 7.23249 16.007 6.73499 16.0061H5.87915C4.83832 16.0061 3.99499 15.1628 3.99499 14.122V13.2628C3.99499 12.7653 3.79749 12.2886 3.44665 11.9361L2.84749 11.3361C2.10915 10.6028 2.10499 9.41029 2.83832 8.67196C2.83832 8.67113 2.83915 8.67029 2.83999 8.66946L2.84749 8.66196L3.44665 8.06196C3.79749 7.70863 3.99499 7.23196 3.99499 6.73363V5.87946" stroke="black" stroke-linecap="round" stroke-linejoin="round"/>
<path d="M7.85938 12.1427L12.1427 7.85938" stroke="black" stroke-linecap="round" stroke-linejoin="round"/>
<path d="M12.0789 12.0827H12.0864" stroke="black" stroke-width="1.5" stroke-linecap="round" stroke-linejoin="round"/>
<path d="M7.91292 7.91667H7.92042" stroke="black" stroke-width="1.5" stroke-linecap="round" stroke-linejoin="round"/>
</svg>
