<svg width="20" height="20" viewBox="0 0 20 20" fill="none" xmlns="http://www.w3.org/2000/svg">
<path d="M8.28359 11.7152C8.20858 11.6402 8.10686 11.5981 8.00079 11.5981C7.89472 11.5981 7.793 11.6402 7.71799 11.7152L5.20039 14.2328V11.9984C5.20039 11.8924 5.15825 11.7906 5.08323 11.7156C5.00822 11.6406 4.90648 11.5984 4.80039 11.5984C4.6943 11.5984 4.59256 11.6406 4.51755 11.7156C4.44253 11.7906 4.40039 11.8924 4.40039 11.9984V15.1984C4.40039 15.3045 4.44253 15.4063 4.51755 15.4813C4.59256 15.5563 4.6943 15.5984 4.80039 15.5984H8.00039C8.10648 15.5984 8.20822 15.5563 8.28323 15.4813C8.35825 15.4063 8.40039 15.3045 8.40039 15.1984C8.40039 15.0924 8.35825 14.9906 8.28323 14.9156C8.20822 14.8406 8.10648 14.7984 8.00039 14.7984H5.76599L8.28279 12.2816C8.32009 12.2445 8.34971 12.2004 8.36994 12.1519C8.39018 12.1033 8.40063 12.0512 8.40071 11.9986C8.40078 11.946 8.39047 11.8939 8.37038 11.8453C8.35028 11.7966 8.32079 11.7524 8.28359 11.7152ZM15.3532 4.42884C15.3046 4.40925 15.2528 4.39893 15.2004 4.39844H12.0004C11.8943 4.39844 11.7926 4.44058 11.7175 4.51559C11.6425 4.59061 11.6004 4.69235 11.6004 4.79844C11.6004 4.90452 11.6425 5.00627 11.7175 5.08128C11.7926 5.15629 11.8943 5.19844 12.0004 5.19844H14.2348L11.718 7.71524C11.6808 7.75238 11.6513 7.79647 11.6311 7.84502C11.611 7.89356 11.6006 7.9456 11.6006 7.99815C11.6005 8.1043 11.6426 8.20613 11.7176 8.28124C11.7926 8.35635 11.8944 8.39859 12.0005 8.39866C12.1067 8.39874 12.2085 8.35664 12.2836 8.28164L14.8004 5.76404V7.99844C14.8004 8.10452 14.8425 8.20627 14.9175 8.28128C14.9926 8.3563 15.0943 8.39844 15.2004 8.39844C15.3065 8.39844 15.4082 8.3563 15.4832 8.28128C15.5582 8.20627 15.6004 8.10452 15.6004 7.99844V4.79844C15.6003 4.71931 15.5767 4.64199 15.5327 4.57621C15.4888 4.51044 15.4263 4.45916 15.3532 4.42884Z" fill="black"/>
<path d="M16 2H4C3.46976 2.00064 2.96142 2.21155 2.58649 2.58649C2.21155 2.96142 2.00064 3.46976 2 4V16C2 17.1032 2.8976 18 4 18H16C17.1024 18 18 17.1032 18 16V4C18 2.8968 17.1024 2 16 2ZM17.2 16C17.2 16.6616 16.6616 17.2 16 17.2H4C3.3384 17.2 2.8 16.6616 2.8 16V4C2.8 3.3384 3.3384 2.8 4 2.8H16C16.6616 2.8 17.2 3.3384 17.2 4V16Z" fill="black"/>
</svg>
