<svg width="16" height="20" viewBox="0 0 16 20" fill="none" xmlns="http://www.w3.org/2000/svg">
<path d="M13.8558 2.62037H12.0464V1.81092C12.0464 1.54903 11.7608 1.43001 11.4989 1.43001H10.0943C9.76096 0.477696 8.92768 0.00154151 7.97537 0.00154151C7.03354 -0.0338659 6.17688 0.543635 5.85648 1.43001H4.47564C4.21375 1.43001 3.95186 1.54903 3.95186 1.81092V2.62037H2.14244C1.07019 2.63181 0.192978 3.47767 0.142578 4.54878V18.1906C0.142578 19.2381 1.09489 19.9999 2.14244 19.9999H13.8558C14.9034 19.9999 15.8557 19.2381 15.8557 18.1906V4.54882C15.8053 3.47767 14.9281 2.63181 13.8558 2.62037ZM4.90412 2.38232H6.21356C6.32491 2.36873 6.42895 2.31976 6.51039 2.24262C6.59182 2.16547 6.64634 2.06423 6.66593 1.95378C6.80692 1.33978 7.3456 0.899031 7.97537 0.882444C8.5993 0.901355 9.12987 1.34347 9.26097 1.95378C9.28172 2.06783 9.33973 2.17178 9.4259 2.24933C9.51206 2.32688 9.62152 2.37365 9.73712 2.38232H11.0942V4.28693H4.90412V2.38232ZM14.9034 18.1906C14.9034 18.7144 14.3796 19.0477 13.8558 19.0477H2.14244C1.61866 19.0477 1.09489 18.7144 1.09489 18.1906V4.54882C1.14346 4.00363 1.59515 3.5827 2.14244 3.57272H3.95182V4.78692C3.97697 5.05368 4.20801 5.25323 4.47559 5.23929H11.4988C11.6303 5.24648 11.7596 5.20393 11.861 5.1201C11.9625 5.03628 12.0287 4.91733 12.0464 4.78692V3.57268H13.8558C14.403 3.5827 14.8548 4.00358 14.9033 4.54878V18.1906H14.9034Z" fill="black"/>
<path d="M6.16544 10.6437C5.98685 10.4555 5.69038 10.4449 5.4988 10.6199L3.9751 12.0722L3.3323 11.4055C3.15371 11.2173 2.85724 11.2067 2.66566 11.3818C2.57688 11.4748 2.52734 11.5984 2.52734 11.727C2.52734 11.8555 2.57688 11.9792 2.66566 12.0722L3.64176 13.0721C3.68349 13.1188 3.73496 13.1559 3.79255 13.1805C3.85014 13.2052 3.91243 13.217 3.97505 13.215C4.10065 13.2132 4.22045 13.1618 4.30835 13.0721L6.16535 11.3104C6.34945 11.1415 6.36175 10.8553 6.19283 10.6712C6.18415 10.6616 6.17501 10.6524 6.16544 10.6437ZM12.9983 11.6674H7.52249C7.25951 11.6674 7.04634 11.8806 7.04634 12.1436C7.04634 12.4066 7.25951 12.6197 7.52249 12.6197H12.9983C13.2612 12.6197 13.4744 12.4066 13.4744 12.1436C13.4744 11.8806 13.2612 11.6674 12.9983 11.6674ZM6.16544 6.83448C5.98685 6.64623 5.69038 6.63562 5.4988 6.81069L3.9751 8.26294L3.3323 7.59631C3.15371 7.40806 2.85724 7.39745 2.66566 7.57252C2.57688 7.66553 2.52734 7.78916 2.52734 7.91773C2.52734 8.04631 2.57688 8.16994 2.66566 8.26294L3.64176 9.26287C3.68349 9.3096 3.73496 9.34662 3.79255 9.3713C3.85014 9.39598 3.91243 9.40774 3.97505 9.40573C4.10065 9.40395 4.22045 9.3526 4.30835 9.26287L6.16535 7.50112C6.34945 7.33224 6.36175 7.04606 6.19283 6.862C6.18415 6.85239 6.17501 6.84321 6.16544 6.83448ZM12.9983 7.8582H7.52249C7.25951 7.8582 7.04634 8.07137 7.04634 8.33435C7.04634 8.59733 7.25951 8.81051 7.52249 8.81051H12.9983C13.2612 8.81051 13.4744 8.59733 13.4744 8.33435C13.4744 8.07137 13.2612 7.8582 12.9983 7.8582ZM6.16544 14.4529C5.98685 14.2647 5.69038 14.2541 5.4988 14.4291L3.9751 15.8814L3.3323 15.2147C3.15371 15.0265 2.85724 15.0159 2.66566 15.191C2.57688 15.284 2.52734 15.4076 2.52734 15.5362C2.52734 15.6647 2.57688 15.7884 2.66566 15.8814L3.64176 16.8813C3.68349 16.928 3.73496 16.965 3.79255 16.9897C3.85014 17.0144 3.91243 17.0262 3.97505 17.0242C4.10065 17.0224 4.22045 16.971 4.30835 16.8813L6.16535 15.1195C6.34945 14.9507 6.36175 14.6645 6.19283 14.4804C6.18412 14.4708 6.17498 14.4617 6.16544 14.4529ZM12.9983 15.4767H7.52249C7.25951 15.4767 7.04634 15.6898 7.04634 15.9528C7.04634 16.2158 7.25951 16.429 7.52249 16.429H12.9983C13.2612 16.429 13.4744 16.2158 13.4744 15.9528C13.4744 15.6898 13.2612 15.4767 12.9983 15.4767Z" fill="black"/>
</svg>
