<svg width="18" height="18" viewBox="0 0 18 18" fill="none" xmlns="http://www.w3.org/2000/svg">
<path d="M6.62971 16.3089V13.7532C6.6297 13.1032 7.15963 12.575 7.81621 12.5707H10.2213C10.881 12.5707 11.4158 13.1001 11.4158 13.7532V13.7532V16.3168C11.4156 16.8687 11.8606 17.3197 12.4179 17.3327H14.0213C15.6196 17.3327 16.9154 16.0499 16.9154 14.4675V14.4675V7.19755C16.9068 6.57504 16.6116 5.99047 16.1137 5.61021L10.6301 1.2371C9.66948 0.475654 8.30387 0.475654 7.34321 1.2371L1.88372 5.61815C1.38391 5.99687 1.08819 6.5824 1.08203 7.20548V14.4675C1.08203 16.0499 2.37776 17.3327 3.97612 17.3327H5.5795C6.15066 17.3327 6.61368 16.8743 6.61368 16.3089V16.3089" stroke="black" stroke-linecap="round" stroke-linejoin="round"/>
</svg>
