<svg width="20" height="20" viewBox="0 0 20 20" fill="none" xmlns="http://www.w3.org/2000/svg">
<path d="M17.9293 2.16948C17.8884 2.16782 17.8475 2.16755 17.8066 2.1687H16.2644V0.843386C16.2645 0.31326 15.7584 0 15.2283 0H13.8067C13.2765 0 12.891 0.31326 12.891 0.843386V2.16865H7.10785V0.843386C7.10785 0.31326 6.72232 0 6.1922 0H4.77049C4.24041 0 3.73436 0.31326 3.73436 0.843386V2.16865H2.19222C1.2078 2.14121 0.387518 2.91703 0.360075 3.90141C0.358922 3.94227 0.359199 3.98323 0.36086 4.02409V17.9518C0.36086 19.012 1.13193 20 2.19218 20H17.8067C18.8669 20 19.638 19.012 19.638 17.9518V4.02409C19.6783 3.04013 18.9133 2.20979 17.9293 2.16948ZM13.8067 0.963857H15.3006V3.61444H13.8067V0.963857ZM4.77053 0.963857H6.14405V3.61444H4.77053V0.963857ZM18.6741 17.9518C18.6741 18.4819 18.3368 19.0361 17.8067 19.0361H2.19222C1.6621 19.0361 1.32476 18.4819 1.32476 17.9518V7.71085H18.6741V17.9518ZM18.6741 4.02409V6.747H1.32472V4.02409C1.2839 3.57348 1.61611 3.17508 2.06673 3.13426C2.10844 3.13049 2.15038 3.12992 2.19218 3.13256H3.73436V3.66268C3.73436 4.19281 4.24036 4.57834 4.77049 4.57834H6.1922C6.68441 4.59186 7.09434 4.20374 7.10785 3.71153C7.10832 3.69525 7.10832 3.67896 7.10785 3.66268V3.13251H12.891V3.66264C12.8775 4.15485 13.2656 4.56478 13.7578 4.5783C13.7741 4.57876 13.7904 4.57876 13.8067 4.5783H15.2284C15.7585 4.5783 16.2645 4.19276 16.2645 3.66264V3.13251H17.8067C18.2583 3.10405 18.6474 3.44706 18.6758 3.89864C18.6785 3.94044 18.6779 3.98238 18.6741 4.02409Z" fill="black"/>
<path d="M7.32385 14.2892L6.89012 16.6989C6.87296 16.8023 6.88994 16.9084 6.9385 17.0013C7.06188 17.2371 7.35309 17.3283 7.58892 17.2049L9.75757 16.0724L11.9262 17.2049L12.1431 17.2531C12.2477 17.2549 12.3497 17.2209 12.4322 17.1567C12.5029 17.1051 12.5582 17.0352 12.5922 16.9545C12.6261 16.8739 12.6375 16.7855 12.625 16.6988L12.1913 14.2892L13.9503 12.6025C14.0122 12.5356 14.0558 12.4539 14.0769 12.3653C14.098 12.2766 14.0959 12.184 14.0708 12.0965C14.0389 12.0155 13.9866 11.9441 13.9191 11.8893C13.8516 11.8344 13.771 11.7979 13.6853 11.7832L11.2756 11.4217L10.1913 9.22897C10.144 9.13137 10.0653 9.05258 9.96766 9.00532C9.7281 8.88933 9.43988 8.98946 9.32384 9.22897L8.23951 11.4217L5.82987 11.7832C5.7441 11.7979 5.66355 11.8344 5.59602 11.8893C5.52848 11.9441 5.47624 12.0155 5.44434 12.0965C5.41924 12.184 5.41714 12.2766 5.43824 12.3653C5.45934 12.4539 5.50293 12.5356 5.56481 12.6025L7.32385 14.2892ZM8.64917 12.3374C8.72356 12.3263 8.79377 12.296 8.85291 12.2496C8.91205 12.2031 8.95809 12.142 8.9865 12.0724L9.75757 10.5302L10.5286 12.0724C10.5571 12.142 10.6031 12.2031 10.6622 12.2496C10.7214 12.296 10.7916 12.3263 10.866 12.3374L12.5768 12.5784L11.3479 13.7591C11.2915 13.815 11.249 13.8834 11.2238 13.9587C11.1987 14.0341 11.1917 14.1143 11.2033 14.1928L11.4924 15.9037L9.97439 15.0844L9.75752 15.0362L9.54066 15.0844L8.0226 15.9037L8.31174 14.1928C8.32337 14.1143 8.31635 14.0341 8.29123 13.9587C8.26611 13.8834 8.2236 13.815 8.16715 13.7591L6.93823 12.5784L8.64917 12.3374Z" fill="black"/>
</svg>
