<svg width="20" height="20" viewBox="0 0 20 20" fill="none" xmlns="http://www.w3.org/2000/svg">
<g clip-path="url(#clip0_3036_14374)">
<path d="M19.7543 13.3435C19.376 12.704 18.7053 12.4779 18.1204 12.7976L17.6174 13.0706V8.75788C18.0346 8.6253 18.3388 8.23536 18.3388 7.77134V5.5019C18.3388 4.93259 17.8748 4.46857 17.3055 4.46857H14.4472C15.4182 4.05913 16.0109 3.33775 16.046 2.50718C16.0771 1.81309 15.695 1.18919 15.0828 0.908439C14.6968 0.732967 13.6517 0.46781 12.3221 1.7429C11.7099 2.33171 11.2029 3.06869 10.8637 3.84467C10.5205 3.06869 10.0136 2.33171 9.40532 1.7429C8.07563 0.463911 7.0306 0.732967 6.64457 0.908439C6.02457 1.18919 5.64633 1.81699 5.67362 2.50718C5.70872 3.33775 6.30142 4.05523 7.27236 4.46857H4.87815C4.30884 4.46857 3.84482 4.93259 3.84482 5.5019V7.77134C3.84482 8.23146 4.14897 8.6253 4.5662 8.75788V12.201L3.69274 12.552C3.55626 12.3219 3.3067 12.1698 3.01815 12.1698H0.803305C0.370475 12.1659 0.0195312 12.5169 0.0195312 12.9497V18.2178C0.0195312 18.6506 0.370475 19.0015 0.803305 19.0015H3.02205C3.3145 19.0015 3.56796 18.8417 3.70444 18.6038L5.2135 19.1146C5.47085 19.2043 5.70872 19.2433 5.98167 19.2433H12.4351C12.829 19.2433 13.1682 19.1419 13.5036 18.9274L19.4774 15.11C20.1013 14.7083 20.0857 13.9011 19.7543 13.3435ZM13.7648 15.1645C13.4919 15.3127 13.2384 15.379 12.946 15.379H12.8368L12.8797 15.3517C13.3554 15.0437 13.566 14.4744 13.4061 13.9323C13.2462 13.3903 12.7588 13.0238 12.1934 13.0238H11.1717V8.80467H16.9935V13.4098L13.7648 15.1645ZM17.7149 5.5019V7.77134C17.7149 7.9975 17.5316 8.18077 17.3055 8.18077H11.1717V5.12756C11.7722 5.26404 12.1622 5.79435 12.6067 6.39486C12.8992 6.78869 13.1994 7.19813 13.5815 7.49838C13.64 7.54517 13.7063 7.56467 13.7765 7.56467C13.8701 7.56467 13.9598 7.52567 14.0222 7.44769C14.1275 7.31121 14.108 7.11624 13.9715 7.01096C13.6556 6.7575 13.3905 6.40266 13.1136 6.02442C12.8797 5.70857 12.6301 5.36932 12.3337 5.09247H17.3093C17.5316 5.09247 17.7149 5.27574 17.7149 5.5019ZM12.751 2.19523C13.3086 1.66492 13.8701 1.38416 14.3575 1.38416C14.5213 1.38416 14.6773 1.41536 14.8254 1.48165C15.2076 1.65322 15.4416 2.04706 15.4221 2.48379C15.3948 3.11158 14.8683 3.6692 14.0105 3.96945C13.293 4.22291 12.361 4.38668 11.2926 4.44907C11.589 3.6263 12.1193 2.80743 12.751 2.19523ZM6.29752 2.48379C6.27802 2.04706 6.51199 1.65322 6.89413 1.48165C7.0384 1.41536 7.19438 1.38416 7.36205 1.38416C7.84947 1.38416 8.41098 1.66492 8.96469 2.19913C9.60029 2.80743 10.1267 3.6263 10.427 4.44907C9.35853 4.38668 8.42268 4.22291 7.70909 3.96945C6.85123 3.6653 6.32482 3.11158 6.29752 2.48379ZM4.46872 5.5019C4.46872 5.27574 4.65199 5.09247 4.87815 5.09247H9.38972C9.09337 5.36932 8.84771 5.70467 8.60985 6.02442C8.32909 6.40266 8.06784 6.7614 7.75199 7.01096C7.61551 7.11624 7.59601 7.31511 7.7013 7.44769C7.76369 7.52567 7.85337 7.56467 7.94696 7.56467C8.01325 7.56467 8.08343 7.54127 8.14192 7.49838C8.52406 7.19423 8.82432 6.78869 9.11677 6.39486C9.5613 5.79435 9.95123 5.26404 10.5517 5.12756V8.18077H4.87815C4.65199 8.18077 4.46872 7.9975 4.46872 7.77134V5.5019ZM5.1901 8.80467H10.5478V13.0277H9.28054C9.08947 13.0277 8.9296 12.9887 8.76192 12.899L6.90972 11.9125C6.4496 11.6668 5.95438 11.6395 5.47085 11.8345L5.1901 11.9476V8.80467ZM3.02205 18.3776H0.803305C0.717519 18.3776 0.643431 18.3035 0.643431 18.2178V12.9497C0.643431 12.8639 0.717519 12.7898 0.803305 12.7898H3.02205C3.10783 12.7898 3.18192 12.8639 3.18192 12.9497V18.2139C3.18192 18.3035 3.10783 18.3776 3.02205 18.3776ZM19.1421 14.5835L13.1682 18.4049C12.9343 18.5531 12.7081 18.6233 12.4351 18.6233H5.98557C5.7789 18.6233 5.61123 18.596 5.41626 18.5297L3.80582 17.9838V13.1759L5.70482 12.4116C6.01677 12.2868 6.32092 12.3024 6.61727 12.4623L8.46947 13.4488C8.72683 13.5853 8.98419 13.6516 9.28054 13.6516H12.1934C12.4858 13.6516 12.7237 13.831 12.8056 14.1117C12.8875 14.3925 12.7822 14.6732 12.5365 14.8292L11.9243 15.223C11.7566 15.3322 11.5929 15.379 11.3901 15.379H8.64884C8.47727 15.379 8.33689 15.5194 8.33689 15.691C8.33689 15.8625 8.47727 16.0029 8.64884 16.0029H12.9421C13.3398 16.0029 13.6946 15.9093 14.0573 15.7144L18.4129 13.3435C18.8535 13.1018 19.1577 13.5658 19.2122 13.6594C19.3682 13.9128 19.4735 14.373 19.1421 14.5835Z" fill="black"/>
<path d="M12.4351 19.2634H5.98164C5.70346 19.2634 5.46458 19.2234 5.20707 19.1336L3.71318 18.628C3.56715 18.8712 3.30378 19.0217 3.02201 19.0217H0.803271C0.360341 19.0217 0 18.6613 0 18.2184V12.9503C0 12.7347 0.0841485 12.5326 0.236926 12.3811C0.388689 12.2307 0.590209 12.1476 0.803466 12.1509H3.01811C3.29992 12.1509 3.55385 12.2917 3.70078 12.5283L4.54667 12.1884V8.77263C4.12121 8.63085 3.82528 8.22141 3.82528 7.77189V5.50246C3.82528 4.92192 4.29758 4.44963 4.87812 4.44963H7.17956C6.24286 4.0244 5.68844 3.32095 5.65413 2.50856C5.62644 1.80886 6.01205 1.174 6.6365 0.891216C7.02671 0.713872 8.07888 0.440526 9.41882 1.72939C10.0153 2.30684 10.5143 3.02105 10.8635 3.79715C11.2091 3.02113 11.708 2.30696 12.3085 1.72939C13.6514 0.441696 14.7016 0.71434 15.0909 0.891216C15.7142 1.17708 16.0968 1.81194 16.0654 2.5086C16.0309 3.32462 15.4768 4.02799 14.5407 4.44963H17.3054C17.886 4.44963 18.3582 4.92192 18.3582 5.50246V7.77189C18.3582 8.22863 18.069 8.62898 17.6369 8.77263V13.0384L18.1111 12.7811C18.7039 12.4568 19.3866 12.6844 19.771 13.3342C20.1066 13.8988 20.1215 14.7191 19.4879 15.1269L13.514 18.9445C13.1738 19.162 12.831 19.2634 12.4351 19.2634ZM3.69547 18.5808L5.2197 19.0967C5.47308 19.185 5.70802 19.2243 5.98164 19.2243H12.4351C12.8232 19.2243 13.1594 19.125 13.493 18.9116L19.4668 15.0941C20.0798 14.6995 20.0638 13.9031 19.7374 13.3541L19.7374 13.354C19.3644 12.7233 18.7032 12.5018 18.1297 12.8153L17.5979 13.1039V8.74424L17.6115 8.73991C18.0348 8.60538 18.3193 8.21638 18.3193 7.77193V5.5025C18.3193 4.94348 17.8645 4.48866 17.3054 4.48866H14.3508L14.4396 4.45119C15.4132 4.04066 15.9916 3.33199 16.0264 2.50696C16.057 1.82621 15.6834 1.20593 15.0747 0.926778C14.6926 0.753139 13.6611 0.486461 12.3355 1.75758C11.7283 2.34155 11.2256 3.06621 10.8815 3.8531L10.8638 3.89373L10.8458 3.85318C10.4978 3.06609 9.99499 2.34143 9.39176 1.75754C8.06905 0.485252 7.0356 0.752788 6.6526 0.926817C6.04266 1.20301 5.66602 1.82328 5.69308 2.50704C5.72779 3.32805 6.30618 4.03672 7.27997 4.45123L7.3679 4.48866H4.87812C4.3191 4.48866 3.86428 4.94348 3.86428 5.5025V7.77193C3.86428 8.20944 4.15533 8.60749 4.57205 8.73991L4.58566 8.74424V12.2148L3.68448 12.5769L3.67594 12.5625C3.53755 12.3292 3.29166 12.1899 3.01811 12.1899H0.803271C0.599763 12.1866 0.408693 12.2658 0.264338 12.4089C0.119048 12.5529 0.0389937 12.7452 0.0389937 12.9503V18.2184C0.0389937 18.6398 0.381827 18.9827 0.803271 18.9827H3.02201C3.29516 18.9827 3.55018 18.834 3.68748 18.5948L3.69547 18.5808ZM12.4351 18.6434H5.98554C5.77715 18.6434 5.60504 18.6151 5.40995 18.5488L3.78629 17.9984V13.1633L5.69749 12.3941C6.01506 12.2671 6.32759 12.2845 6.62648 12.4457L8.4786 13.4322C8.73651 13.569 8.99133 13.6327 9.28051 13.6327H12.1933C12.4926 13.6327 12.7402 13.8188 12.8243 14.1069C12.9085 14.3956 12.7996 14.6859 12.5469 14.8463L11.9348 15.2401C11.7659 15.3501 11.5979 15.3991 11.3901 15.3991H8.64881C8.48753 15.3991 8.35636 15.5303 8.35636 15.6916C8.35636 15.8529 8.48753 15.984 8.64881 15.984H12.942C13.3333 15.984 13.6848 15.8931 14.048 15.6978L18.4035 13.327C18.8726 13.0696 19.1939 13.59 19.229 13.6502C19.3831 13.9006 19.4989 14.3805 19.1525 14.6006L13.1787 18.4219C12.9369 18.5751 12.7076 18.6434 12.4351 18.6434ZM3.82528 17.9704L5.42247 18.5119C5.6158 18.5776 5.77895 18.6044 5.9855 18.6044H12.4351C12.6997 18.6044 12.9226 18.538 13.1577 18.3891L19.1315 14.5677C19.4543 14.3627 19.3421 13.9084 19.1956 13.6702C19.1412 13.5771 18.8498 13.1267 18.4222 13.3613L14.0665 15.7321C13.6973 15.9306 13.34 16.023 12.942 16.023H8.64881C8.46605 16.023 8.31736 15.8744 8.31736 15.6916C8.31736 15.5088 8.46605 15.3601 8.64881 15.3601H11.3901C11.5899 15.3601 11.7513 15.313 11.9137 15.2073L12.526 14.8134C12.7637 14.6625 12.8661 14.3894 12.7868 14.1178C12.7078 13.8468 12.4748 13.6717 12.1933 13.6717H9.28051C8.98474 13.6717 8.72407 13.6066 8.46031 13.4667L6.60811 12.4801C6.31975 12.3246 6.01833 12.3078 5.71203 12.4303L3.82528 13.1896V17.9704ZM3.02201 18.3978H0.803271C0.70602 18.3978 0.6239 18.3156 0.6239 18.2184V12.9503C0.6239 12.853 0.70602 12.7709 0.803271 12.7709H3.02201C3.11926 12.7709 3.20139 12.853 3.20139 12.9503V18.2145C3.20139 18.3138 3.11926 18.3978 3.02201 18.3978ZM0.803271 12.8099C0.728481 12.8099 0.662893 12.8755 0.662893 12.9503V18.2184C0.662893 18.2932 0.728481 18.3588 0.803271 18.3588H3.02201C3.09813 18.3588 3.16239 18.2928 3.16239 18.2145V12.9504C3.16239 12.8756 3.0968 12.81 3.02201 12.81H0.803271V12.8099ZM12.9459 15.3991H12.7698L12.8691 15.3359C13.3363 15.0333 13.5446 14.4718 13.3873 13.9385C13.2295 13.4034 12.7497 13.0439 12.1933 13.0439H11.1522V8.78577H17.013V13.422L17.0027 13.4276L13.7741 15.1823C13.4978 15.3323 13.2424 15.3991 12.9459 15.3991ZM12.9033 15.3601H12.9459C13.2356 15.3601 13.4852 15.2947 13.7555 15.148L16.974 13.3989V8.82476H11.1912V13.0049H12.1933C12.7671 13.0049 13.262 13.3756 13.4247 13.9274C13.5855 14.4725 13.376 15.0461 12.9033 15.3601ZM10.5673 13.0478H9.28051C9.08484 13.0478 8.92208 13.0074 8.75269 12.9168L6.90052 11.9303C6.44629 11.6878 5.95442 11.6612 5.47807 11.8532L5.17053 11.9771V8.78581H10.5673V13.0478ZM6.11196 11.6873C6.38663 11.6873 6.65876 11.757 6.91889 11.8959L8.77109 12.8825C8.93452 12.9699 9.09162 13.0088 9.28055 13.0088H10.5283V8.8248H5.20956V11.9193L5.46353 11.817C5.67811 11.7305 5.89585 11.6873 6.11196 11.6873ZM17.3054 8.20086H11.1522V5.10375L11.176 5.10917C11.7805 5.24654 12.1674 5.76929 12.6154 6.37455L12.6422 6.41062C12.9273 6.79471 13.2221 7.19186 13.5935 7.48369C13.6451 7.52495 13.7066 7.54581 13.7764 7.54581C13.8685 7.54581 13.9503 7.50685 14.0069 7.43612C14.0545 7.37491 14.0765 7.29753 14.068 7.2204C14.064 7.1825 14.0523 7.14581 14.0336 7.11257C14.015 7.07933 13.9897 7.05023 13.9595 7.02703C13.6527 6.78083 13.3984 6.44716 13.0978 6.03659L13.0849 6.01909C12.8514 5.70386 12.6099 5.37787 12.3203 5.10737L12.2842 5.07364H17.3093C17.5437 5.07364 17.7343 5.26608 17.7343 5.50257V7.77201C17.7343 8.00847 17.5419 8.20086 17.3054 8.20086ZM11.1912 8.16187H17.3054C17.5204 8.16187 17.6954 7.98694 17.6954 7.77193V5.5025C17.6954 5.28749 17.5222 5.11256 17.3094 5.11256H12.3826C12.659 5.3785 12.8913 5.69212 13.1162 5.99585L13.1292 6.01339C13.4282 6.42174 13.6808 6.75334 13.9836 6.99635C14.018 7.02272 14.0466 7.0558 14.0678 7.09357C14.0889 7.13134 14.1022 7.17302 14.1068 7.21608C14.1165 7.30307 14.0919 7.38979 14.0375 7.46022C13.9732 7.54062 13.8806 7.58476 13.7765 7.58476C13.6976 7.58476 13.6278 7.56101 13.5693 7.51418C13.1939 7.21923 12.8975 6.81994 12.6108 6.43378L12.5841 6.39768C12.1466 5.80673 11.7681 5.29528 11.1912 5.1528V8.16187H11.1912ZM10.5712 8.20086H4.87812C4.64162 8.20086 4.44918 8.00843 4.44918 7.77193V5.5025C4.44918 5.266 4.64162 5.07357 4.87812 5.07357H9.43909L9.40299 5.1073C9.11939 5.37222 8.8823 5.69111 8.6531 5.99947L8.59543 6.07711C8.32555 6.44096 8.07065 6.78461 7.76404 7.0268C7.70348 7.07352 7.66507 7.14152 7.65572 7.21849C7.65103 7.25699 7.654 7.29604 7.66443 7.33339C7.67487 7.37074 7.69258 7.40566 7.71655 7.43616C7.77309 7.50685 7.8549 7.54577 7.94692 7.54577C8.00931 7.54577 8.07619 7.523 8.13035 7.48322C8.50773 7.18285 8.80685 6.78005 9.09611 6.3905L9.10808 6.3744C9.55608 5.76918 9.94301 5.2465 10.5474 5.10913L10.5712 5.10371V8.20086ZM4.87812 5.1126C4.6631 5.1126 4.48818 5.28752 4.48818 5.50254V7.77197C4.48818 7.98698 4.6631 8.16191 4.87812 8.16191H10.5322V5.15288C9.95537 5.29536 9.57686 5.80677 9.13943 6.39764L9.12746 6.41382C8.83668 6.80539 8.53604 7.21027 8.15406 7.5143C8.09182 7.55996 8.01848 7.58484 7.94692 7.58484C7.84285 7.58484 7.75016 7.5407 7.68605 7.46053C7.65889 7.42597 7.6388 7.3864 7.62695 7.34407C7.6151 7.30174 7.61172 7.25749 7.617 7.21385C7.62764 7.12647 7.67135 7.04914 7.74006 6.99615C8.04238 6.75728 8.2958 6.41565 8.56411 6.05395L8.62179 5.97627C8.84245 5.67945 9.07033 5.37292 9.34079 5.1126H4.87812ZM10.4554 4.47088L10.4258 4.46916C9.35331 4.40654 8.41161 4.24031 7.70255 3.98845C6.83817 3.682 6.30564 3.12006 6.27803 2.48528C6.25814 2.03997 6.49682 1.63927 6.88614 1.4645C7.02932 1.39868 7.18951 1.3653 7.36205 1.3653C7.85591 1.3653 8.4299 1.65666 8.97823 2.18573C9.60646 2.78697 10.1412 3.60974 10.4453 4.44304L10.4554 4.47088ZM7.36202 1.4043C7.19512 1.4043 7.04043 1.4365 6.9022 1.49999C6.52747 1.66824 6.2978 2.05428 6.31694 2.48352C6.34381 3.10189 6.86668 3.65072 7.71557 3.95168C8.41469 4.19999 9.34181 4.36474 10.3983 4.42845C10.0945 3.61013 9.56828 2.8044 8.95117 2.21384C8.41009 1.69176 7.84573 1.4043 7.36202 1.4043ZM11.2642 4.47088L11.2742 4.44308C11.5708 3.61976 12.1041 2.79559 12.7374 2.18183L12.7375 2.18171C13.2991 1.64762 13.8593 1.36526 14.3575 1.36526C14.5262 1.36526 14.6863 1.39864 14.8334 1.46442C15.2226 1.63919 15.4614 2.03989 15.4415 2.48524C15.4137 3.12396 14.8811 3.68594 14.0169 3.98841C13.3033 4.2405 12.3616 4.40677 11.2937 4.46912L11.2642 4.47088ZM12.7644 2.20991C12.1425 2.81271 11.6176 3.61992 11.321 4.42849C12.3731 4.36501 13.3003 4.20026 14.0039 3.95168C14.8527 3.65462 15.3755 3.10579 15.4025 2.48352C15.4217 2.05428 15.1921 1.66824 14.8174 1.50002C14.6754 1.4365 14.5207 1.40426 14.3575 1.40426C13.8695 1.4043 13.3186 1.68291 12.7644 2.20991Z" fill="black"/>
</g>
<defs>
<clipPath id="clip0_3036_14374">
<rect width="20" height="20" fill="white"/>
</clipPath>
</defs>
</svg>
