<svg width="20" height="20" viewBox="0 0 20 20" fill="none" xmlns="http://www.w3.org/2000/svg">
<path fill-rule="evenodd" clip-rule="evenodd" d="M4.91265 17.6089L5.15877 18.0438L5.1592 18.0446C5.36747 18.4151 5.23539 18.8877 4.86708 19.0958L3.9943 19.5904L3.99336 19.591C3.62292 19.7993 3.15022 19.6672 2.9421 19.2987L0.375474 14.7635C0.165317 14.3927 0.297395 13.9196 0.666179 13.7113L1.54002 13.2167L1.5403 13.2165C1.90889 13.0083 2.38175 13.1391 2.59163 13.5078L2.59206 13.5085L2.79155 13.861L5.07336 12.5399C5.76163 12.1418 6.46492 11.8824 7.22088 12.1279C7.95559 12.3661 9.155 12.8796 10.3791 13.1009C10.3929 13.1033 10.4066 13.1068 10.4199 13.1111C11.0401 13.3119 11.417 13.9389 11.2477 14.5686C11.2238 14.659 11.1906 14.7467 11.1488 14.8303C11.2786 14.7926 11.4058 14.738 11.5308 14.6652L14.643 12.8526C15.7695 12.1964 16.5206 12.2679 16.9457 12.5531C17.312 12.7988 17.4817 13.2184 17.4708 13.6302C17.4597 14.0464 17.2614 14.4438 16.935 14.6448L11.2879 18.1217C10.6928 18.489 10.0409 18.5752 9.36559 18.3951L9.36524 18.3949L5.39434 17.3307L4.91265 17.6089ZM4.61238 18.3523L2.0463 13.8181L2.0461 13.8178C2.00649 13.7488 1.91802 13.7238 1.84889 13.7628L0.975317 14.2574L0.975042 14.2575C0.90614 14.2964 0.882101 14.3849 0.921356 14.4541L0.921434 14.4543L3.48818 18.9896L3.4883 18.9899C3.52736 19.059 3.6161 19.0831 3.68559 19.0442L4.55771 18.5499L4.5581 18.5496C4.62724 18.5106 4.65132 18.4218 4.61238 18.3523ZM4.60359 17.0628L5.19316 16.7224C5.22884 16.7018 5.26823 16.6884 5.30908 16.683C5.34993 16.6777 5.39144 16.6804 5.43124 16.6911L9.52739 17.7888C10.03 17.9229 10.5155 17.8611 10.9584 17.5878L10.9586 17.5876L16.606 14.1105C16.7511 14.0212 16.826 13.8414 16.8412 13.6575C16.8646 13.3737 16.7318 13.0601 16.3808 12.9865C16.0519 12.9176 15.5891 13.0276 14.9588 13.3948L11.8467 15.2073C11.3468 15.4987 10.8228 15.5793 10.2517 15.4884L10.2506 15.4882L9.86481 15.4254C9.86465 15.4254 8.49739 15.0665 7.77449 14.8722C7.60728 14.8273 7.50802 14.6551 7.55296 14.4878C7.5979 14.3206 7.77014 14.2214 7.93736 14.2663C8.6432 14.456 9.27947 14.664 9.96469 14.8056C10.3096 14.8438 10.5624 14.7013 10.6417 14.4058L10.6417 14.4056C10.7221 14.1069 10.5348 13.8172 10.2446 13.7141C8.99716 13.4851 7.77614 12.9675 7.02728 12.7247L7.02712 12.7247C6.44692 12.5362 5.91575 12.7775 5.38751 13.0831L3.10061 14.4071L4.60359 17.0628ZM1.72269 14.2929C1.92077 14.2634 2.10473 14.4002 2.13422 14.5983C2.16249 14.7964 2.02571 14.9815 1.82763 15.0098C1.62955 15.0393 1.44559 14.9014 1.4161 14.7033C1.38783 14.5052 1.52461 14.3212 1.72269 14.2929ZM17.2424 4.8149C17.3915 5.34612 17.4713 5.90623 17.4713 6.48486C17.4713 9.89251 14.7047 12.6591 11.297 12.6591C7.88936 12.6591 5.12273 9.89251 5.12273 6.48486C5.12273 5.30506 5.45441 4.20215 6.02939 3.26423L5.36151 2.53945C5.32111 2.49562 5.29404 2.44119 5.28346 2.38253C5.27288 2.32387 5.27924 2.26341 5.30179 2.20823C5.32431 2.15305 5.3621 2.10543 5.41072 2.07094C5.45933 2.03646 5.51677 2.01654 5.5763 2.01353L7.12504 1.93482C8.22418 0.926351 9.68928 0.310547 11.297 0.310547C13.0684 0.310547 14.6666 1.05804 15.7929 2.25463L17.3091 0.727292L17.3094 0.727057C17.8593 0.174272 18.7569 0.171527 19.3097 0.721488C19.8624 1.27129 19.8657 2.16576 19.3159 2.72129L19.3157 2.72141C18.777 3.2651 18.0365 4.0131 17.2424 4.8149ZM15.3506 2.70023C14.3379 1.61619 12.8961 0.937998 11.297 0.937998C10.1528 0.937998 9.08912 1.28521 8.20555 1.87992L8.40347 1.86984C8.44945 1.86752 8.49538 1.87534 8.53799 1.89275C8.58061 1.91016 8.61887 1.93674 8.65007 1.97059C8.68127 2.00445 8.70463 2.04475 8.71851 2.08865C8.73239 2.13254 8.73644 2.17895 8.73038 2.22459L8.71422 2.34596C9.46343 1.87714 10.3488 1.60608 11.297 1.60608C12.7126 1.60608 13.9883 2.21015 14.8797 3.17455L15.3506 2.70023ZM14.4372 3.62031C13.6596 2.76843 12.5403 2.23353 11.297 2.23353C10.2738 2.23353 9.33449 2.5958 8.60057 3.19902L8.35657 5.03066C8.34871 5.08975 8.32418 5.14538 8.28584 5.19102C8.24751 5.23667 8.19696 5.27045 8.14012 5.28841C8.08329 5.30637 8.02251 5.30776 7.96491 5.29242C7.9073 5.27708 7.85527 5.24565 7.81488 5.2018L7.40971 4.76212C7.17571 5.28882 7.04571 5.87176 7.04571 6.48486C7.04571 8.83121 8.95065 10.7362 11.297 10.7362C13.6303 10.7362 15.527 8.85251 15.5482 6.52427C14.7337 7.34525 13.9712 8.11255 13.4181 8.66557C12.8655 9.21819 11.9682 9.21819 11.4156 8.66557L8.9741 6.22184C8.42159 5.66937 8.42104 4.77517 8.97351 4.21984L8.9741 4.21925C9.52673 3.66663 10.424 3.66663 10.9767 4.21925L12.4149 5.65753L14.4372 3.62031ZM16.1438 5.92364C16.1649 6.1078 16.1758 6.29506 16.1758 6.48486C16.1758 9.17753 13.9897 11.3636 11.297 11.3636C8.60434 11.3636 6.41826 9.17753 6.41826 6.48486C6.41826 5.60537 6.65151 4.77996 7.05936 4.06706C7.06794 4.05137 7.07794 4.03627 7.08939 4.02196C7.10852 3.99795 7.13109 3.9769 7.15637 3.95949C7.19895 3.93004 7.24818 3.91164 7.29963 3.90596C7.35105 3.90011 7.40312 3.90713 7.45116 3.92639C7.49654 3.94455 7.53707 3.97304 7.56951 4.00961L7.82296 4.28466L8.05861 2.51564L6.27626 2.60623L6.65088 3.01274C6.70101 3.06506 6.73141 3.13316 6.73689 3.20541C6.74255 3.27759 6.72302 3.3495 6.68163 3.4089C6.09328 4.28937 5.75018 5.34737 5.75018 6.48486C5.75018 9.54623 8.23563 12.0317 11.297 12.0317C14.3584 12.0317 16.8439 9.54623 16.8439 6.48486C16.8439 6.09149 16.8028 5.70761 16.7248 5.33733C16.5317 5.53223 16.3374 5.72835 16.1438 5.92364ZM12.9745 8.22188C13.8753 7.32106 18.3023 2.85266 18.8699 2.27988C19.1761 1.97055 19.1749 1.47247 18.8672 1.16631C18.5596 0.860312 18.0602 0.861998 17.7542 1.16953L12.6384 6.32306C12.6093 6.35235 12.5747 6.37562 12.5366 6.39152C12.4985 6.40742 12.4576 6.41565 12.4163 6.41573C12.375 6.4158 12.3341 6.40773 12.296 6.39197C12.2578 6.37621 12.2231 6.35307 12.1939 6.32388L10.533 4.66294C10.2253 4.35529 9.72583 4.35517 9.41806 4.66266C9.11041 4.97219 9.10994 5.47035 9.41775 5.77819L11.8592 8.22188C12.167 8.52964 12.6667 8.52964 12.9745 8.22188Z" fill="black"/>
</svg>
