<svg width="19" height="14" viewBox="0 0 19 14" fill="none" xmlns="http://www.w3.org/2000/svg">
<path d="M14.9062 6.08044C16.0688 5.91711 16.9638 4.92044 16.9663 3.71294C16.9663 2.52294 16.0988 1.53628 14.9613 1.34961" stroke="black" stroke-linecap="round" stroke-linejoin="round"/>
<path d="M16.4414 8.875C17.5672 9.04333 18.3531 9.4375 18.3531 10.25C18.3531 10.8092 17.9831 11.1725 17.3847 11.4008" stroke="black" stroke-linecap="round" stroke-linejoin="round"/>
<path fill-rule="evenodd" clip-rule="evenodd" d="M9.90724 9.21875C7.22891 9.21875 4.94141 9.62458 4.94141 11.2454C4.94141 12.8654 7.21474 13.2829 9.90724 13.2829C12.5856 13.2829 14.8722 12.8813 14.8722 11.2596C14.8722 9.63792 12.5997 9.21875 9.90724 9.21875Z" stroke="black" stroke-linecap="round" stroke-linejoin="round"/>
<path fill-rule="evenodd" clip-rule="evenodd" d="M9.90518 6.90602C11.6627 6.90602 13.0877 5.48185 13.0877 3.72352C13.0877 1.96602 11.6627 0.541016 9.90518 0.541016C8.14768 0.541016 6.72268 1.96602 6.72268 3.72352C6.71601 5.47518 8.13018 6.90018 9.88185 6.90602H9.90518Z" stroke="black" stroke-linecap="round" stroke-linejoin="round"/>
<path d="M4.9057 6.08044C3.74237 5.91711 2.8482 4.92044 2.8457 3.71294C2.8457 2.52294 3.7132 1.53628 4.8507 1.34961" stroke="black" stroke-linecap="round" stroke-linejoin="round"/>
<path d="M3.37065 8.875C2.24482 9.04333 1.45898 9.4375 1.45898 10.25C1.45898 10.8092 1.82898 11.1725 2.42732 11.4008" stroke="black" stroke-linecap="round" stroke-linejoin="round"/>
</svg>
